<?xml version="1.0" encoding="UTF-8"?><svg id="a" xmlns="http://www.w3.org/2000/svg" viewBox="0 0 527.89 579.76"><g><path d="M438.79,489.78c-7.43,0-13.47,6.03-13.47,13.47v40.19c-.91,3.72-3.01,8.33-7.86,9.37H199.88c-5.49-1.16-7.46-6.95-8.16-10.82v-68.9h.15v-26.95h-.15V129.65l-26.94-3.61V446.15h-17.47c-4.42-1.58-6.21-6.38-6.94-9.92l.08-306.58-26.93-3.6-.08,311.17c-.86,3.39-2.7,7.5-6.72,8.94H59.53c-7.44,0-13.46,6.04-13.46,13.48s6.03,13.47,13.46,13.47h53.89v.1h26.94v-.1h24.42v67.03c-.37,3.48-1.94,11.29-8.44,12.68h-8.19c-4.76-1.02-6.87-5.48-7.81-9.17l.02-60.9-26.94-3.6-.02,72.65v-13.33s-.17,12.54-8.56,14.34H35.63c-7.44,0-13.48,6.03-13.48,13.47s6.04,13.48,13.48,13.48H438.79l13.47-13.48v-63.03c0-7.44-6.04-13.47-13.47-13.47Z"/><path d="M59.73,120.07h53.79v.02h26.94v-.02h24.32v.02h26.94v-.02h107.41l-2.85,.27s32.19-1.24,55.79,19.83c23.63,29.21,58.38,82.94,58.83,146.92,.33,46.34-17.31,91-52.48,133.15l1.94-2.89c-23.44,30.3-64.08,28.69-64.08,28.69l1.09,.11h-101.67l6.31,26.95h137.68l9.23-3.67c59.53-56.05,89.44-117.54,88.91-182.76-.37-45.04-15.88-92.16-44.87-136.28-21.74-33.11-43.29-52.91-44.2-53.74l-9.07-3.51H191.72V13.48C191.72,6.04,185.69,0,178.25,0s-13.48,6.04-13.48,13.47V93.13h-20.9c-1.89-2.04-2.88-4.83-3.42-7.17l.02-72.48L126.9,0l-7.07,.07H59.96C55.25-.18,31.85-.62,15.31,15.43,4.75,25.68-.32,39.86,.25,57.59c-.57,6.05-1.51,28.77,13.71,45.62,10.61,11.7,25.99,17.4,45.76,16.87Zm-25.69-34.83c-8.68-9.48-6.94-25.39-6.92-25.45l.1-2.34c-.47-10.28,1.75-17.67,6.77-22.6,7.41-7.29,19.46-7.91,23.31-7.91,.77,0,1.21,.02,1.21,.02l1.02,.04h53.19c.3,.35,.57,.7,.82,1.06v55.29c-.9,3.86-3.07,8.87-8.31,9.77H59.14c-11.55,.36-20-2.33-25.11-7.9Z"/></g><g><g><line x1="302.57" y1="306.23" x2="270.46" y2="269.84"/><path d="M302.58,316.28c-2.79,0-5.56-1.14-7.54-3.41l-32.12-36.38c-3.67-4.17-3.28-10.53,.89-14.2,4.16-3.68,10.52-3.28,14.2,.89l32.11,36.38c3.67,4.18,3.28,10.54-.88,14.22-1.91,1.68-4.29,2.52-6.65,2.52Z"/></g><g><line x1="270.46" y1="306.23" x2="302.57" y2="269.84"/><path d="M270.46,316.28c-2.36,0-4.73-.84-6.65-2.52-4.17-3.68-4.56-10.03-.89-14.22l32.12-36.38c3.67-4.17,10.03-4.57,14.2-.89,4.17,3.67,4.56,10.03,.88,14.2l-32.11,36.38c-1.98,2.26-4.76,3.41-7.55,3.41Z"/></g></g><path d="M517.83,311.71c-3.47,0-6.84-1.8-8.71-5.03l-7.02-12.16-7.01,12.16c-2.79,4.8-8.94,6.46-13.74,3.68-4.81-2.77-6.46-8.93-3.69-13.75l15.73-27.23c1.79-3.1,5.11-5.02,8.71-5.02s6.92,1.92,8.71,5.02l15.73,27.23c2.77,4.82,1.13,10.97-3.68,13.75-1.59,.92-3.32,1.35-5.03,1.35Z"/><path d="M67.29,311.71c-3.48,0-6.86-1.8-8.72-5.03l-7.01-12.14-7.02,12.14c-2.77,4.8-8.92,6.46-13.74,3.68-4.81-2.77-6.45-8.93-3.67-13.75l15.71-27.23c1.8-3.1,5.12-5.02,8.72-5.02s6.91,1.92,8.71,5.02l15.73,27.23c2.78,4.82,1.13,10.97-3.68,13.75-1.59,.92-3.31,1.35-5.02,1.35Z"/></svg>